<?xml version="1.0" standalone="no"?>
<!DOCTYPE svg PUBLIC "-//W3C//DTD SVG 20010904//EN"
 "http://www.w3.org/TR/2001/REC-SVG-20010904/DTD/svg10.dtd">
<svg version="1.0" xmlns="http://www.w3.org/2000/svg"
 width="192.000000pt" height="80.000000pt" viewBox="0 0 192.000000 80.000000"
 preserveAspectRatio="xMidYMid meet">

<g transform="translate(0.000000,80.000000) scale(0.100000,-0.100000)"
fill="#000000" stroke="none">
<path d="M398 793 c6 -2 18 -2 25 0 6 3 1 5 -13 5 -14 0 -19 -2 -12 -5z"/>
<path d="M955 758 c-4 -33 -35 -338 -58 -568 -2 -24 0 -25 71 -28 39 -2 72 1
73 5 13 160 26 238 39 240 10 2 41 -40 89 -122 l73 -125 84 0 c46 0 84 2 84 5
0 3 -37 64 -82 137 -77 123 -81 132 -63 142 44 24 104 96 111 131 22 117 -31
193 -147 214 -36 6 -111 11 -167 11 l-101 0 -6 -42z m263 -94 c34 -22 31 -87
-7 -125 -25 -25 -37 -29 -81 -29 l-52 0 7 83 c4 45 9 85 12 89 6 11 95 -2 121
-18z"/>
<path d="M1664 786 c-44 -14 -134 -73 -134 -88 0 -4 15 -24 33 -43 l32 -36 38
26 c51 35 101 43 127 20 22 -20 25 -46 10 -74 -11 -21 -79 -51 -114 -51 -25 0
-36 -21 -36 -72 0 -24 4 -28 30 -28 43 0 97 -25 104 -48 9 -27 -9 -68 -35 -83
-33 -17 -120 -6 -158 20 -18 13 -36 20 -40 15 -4 -5 -24 -30 -44 -56 l-38 -47
41 -26 c181 -114 419 -23 420 160 0 43 -29 102 -56 112 -12 5 -9 13 19 42 133
137 -7 317 -199 257z"/>
<path d="M497 770 c65 -26 138 -96 165 -157 45 -103 20 -240 -61 -324 l-46
-48 57 -63 56 -63 27 25 c14 13 40 54 58 89 30 61 32 73 32 171 0 93 -3 112
-27 162 -51 109 -173 207 -278 223 -30 5 -27 3 17 -15z"/>
<path d="M260 761 c-135 -44 -227 -155 -252 -304 -30 -183 84 -370 263 -430
59 -20 159 -31 159 -19 0 6 -14 13 -30 17 -44 10 -140 77 -178 125 -19 22 -45
66 -60 98 -23 48 -27 71 -27 143 0 76 3 90 27 126 40 61 90 95 148 101 42 4
52 1 74 -21 47 -47 28 -133 -37 -169 -12 -7 -52 -17 -89 -23 l-66 -10 140
-160 c77 -88 151 -172 164 -188 l23 -28 46 22 c25 12 45 24 45 28 0 3 -41 51
-90 106 -50 55 -90 103 -90 106 0 3 11 11 24 17 40 18 96 73 119 116 28 54 30
165 3 216 -46 89 -116 132 -221 136 -38 2 -81 0 -95 -5z"/>
<path d="M907 74 c8 -4 10 -18 8 -37 l-5 -32 11 30 c7 17 17 33 23 37 6 4 -2
7 -19 7 -16 0 -25 -3 -18 -5z"/>
<path d="M985 49 c-4 -17 -4 -33 -1 -36 3 -4 6 1 6 10 0 24 16 21 36 -5 13
-18 15 -19 10 -4 -3 10 -1 25 5 32 12 15 4 34 -14 33 -9 0 -8 -2 1 -6 16 -6 6
-23 -15 -23 -9 0 -13 6 -9 15 3 8 1 15 -4 15 -4 0 -11 -14 -15 -31z"/>
<path d="M1089 38 c-12 -24 -15 -37 -8 -30 7 6 21 12 30 12 10 0 20 -6 22 -12
3 -7 6 -3 6 10 1 19 -3 22 -20 17 -16 -5 -20 -3 -16 6 2 8 10 13 16 12 6 -2
11 4 11 12 0 28 -20 15 -41 -27z"/>
<path d="M1185 49 c-4 -17 -4 -33 -1 -36 3 -4 6 3 6 15 0 28 17 29 25 2 8 -24
25 -27 25 -4 0 8 -4 12 -10 9 -5 -3 -12 6 -16 20 -8 34 -21 32 -29 -6z"/>
<path d="M1241 64 c0 -11 3 -14 6 -6 3 7 2 16 -1 19 -3 4 -6 -2 -5 -13z"/>
<path d="M1290 65 c0 -8 9 -19 20 -25 25 -13 16 -34 -11 -27 -11 3 -17 1 -13
-4 8 -13 30 -11 43 5 10 11 7 17 -10 29 -11 9 -18 20 -14 26 3 6 1 11 -4 11
-6 0 -11 -7 -11 -15z"/>
<path d="M1325 70 c3 -5 8 -10 11 -10 2 0 4 5 4 10 0 6 -5 10 -11 10 -5 0 -7
-4 -4 -10z"/>
<path d="M1387 73 c-3 -5 -7 -24 -11 -43 -6 -32 -5 -33 5 -10 16 34 20 77 6
53z"/>
<path d="M1420 70 c13 -9 13 -11 0 -21 -13 -9 -13 -10 0 -6 22 6 25 37 3 37
-15 0 -16 -2 -3 -10z"/>
<path d="M1482 68 c-17 -17 -15 -55 4 -62 27 -10 56 12 52 42 -3 30 -35 41
-56 20z m48 -17 c0 -22 -25 -45 -40 -36 -11 7 -14 38 -3 48 14 15 43 7 43 -12z"/>
<path d="M1587 73 c-3 -5 -7 -24 -11 -43 -5 -31 -5 -32 6 -12 13 27 23 28 38
5 11 -17 11 -17 6 -1 -3 10 -1 20 4 23 20 12 10 35 -14 35 -14 0 -27 -3 -29
-7z m43 -13 c0 -5 -9 -10 -20 -10 -11 0 -20 5 -20 10 0 6 9 10 20 10 11 0 20
-4 20 -10z"/>
<path d="M1688 73 c8 -3 11 -17 7 -41 l-5 -37 11 35 c6 19 16 38 22 42 7 4 -1
7 -18 7 -16 0 -24 -3 -17 -6z"/>
<path d="M1766 58 c-12 -46 -7 -58 22 -57 23 2 24 2 5 6 -33 6 -29 33 5 34 24
2 25 2 4 6 -15 3 -22 10 -18 19 3 8 2 14 -3 14 -5 0 -11 -10 -15 -22z"/>
<path d="M1864 69 c-4 -7 3 -19 16 -29 16 -12 19 -19 11 -24 -7 -4 -18 -2 -26
4 -9 7 -15 8 -15 2 0 -13 26 -23 45 -16 21 9 19 31 -5 44 -11 6 -18 15 -15 21
4 5 4 9 1 9 -3 0 -8 -5 -12 -11z"/>
</g>
</svg>
