<svg id="Camada_1" data-name="Camada 1" xmlns="http://www.w3.org/2000/svg" viewBox="0 0 50 50"><defs><style>.cls-1{fill:#e5f2ed;}.cls-2{fill:none;stroke:#4bb58e;stroke-linecap:round;stroke-linejoin:round;stroke-width:1.5px;}</style></defs><g id="Avatar"><path id="Rectangle_172" data-name="Rectangle 172" class="cls-1" d="M8.33,0H41.67A8.36,8.36,0,0,1,50,8.33V41.67A8.36,8.36,0,0,1,41.67,50H8.33A8.36,8.36,0,0,1,0,41.67V8.33A8.36,8.36,0,0,1,8.33,0Z"/><g id="boy"><g id="Bag_1" data-name="Bag 1"><path id="Vector" class="cls-2" d="M28.89,34.44c3.05,0,5.42-1.11,4.72-5.55l-.83-6c-.42-2.23-1.81-3.06-3.06-3.06H19.58c-1.25,0-2.64,1-3,3.06l-.84,6c-.55,3.89,1.67,5.55,4.73,5.55Z"/><path id="Vector_2" data-name="Vector 2" class="cls-2" d="M20.42,19.58a4.31,4.31,0,1,1,8.61,0"/><path id="Vector_3" data-name="Vector 3" class="cls-2" d="M21.67,24.17h0"/><path id="Vector_4" data-name="Vector 4" class="cls-2" d="M27.5,24.17h0"/></g></g></g></svg>